<svg xmlns="http://www.w3.org/2000/svg" viewBox="0 0 1200 900" width="1200" height="900" role="img" aria-label="Яблочно-коричный протеиновый коктейль"><title>Яблочно-коричный протеиновый коктейль</title><defs>
    <radialGradient id="bg" cx="50%" cy="38%" r="75%"><stop offset="0" stop-color="#F7F1E7"/><stop offset="1" stop-color="#E4D6C3"/></radialGradient>
    <linearGradient id="table" x1="0" y1="0" x2="0" y2="1"><stop offset="0" stop-color="#E9DCC9"/><stop offset="1" stop-color="#D9C7AF"/></linearGradient>
    <radialGradient id="bbshine" cx="35%" cy="30%" r="60%"><stop offset="0" stop-color="#8C97C9" stop-opacity=".7"/><stop offset=".5" stop-color="#35406E" stop-opacity="0"/></radialGradient>
    <pattern id="straw" width="26" height="40" patternUnits="userSpaceOnUse"><rect width="26" height="14" fill="#0D0F11" opacity=".85"/></pattern>
  </defs>
  <rect width="1200" height="900" fill="url(#bg)"/>
  <rect y="690" width="1200" height="210" fill="url(#table)"/>
  <rect y="688" width="1200" height="4" fill="#fff" opacity=".35"/>
  <g>
    <ellipse cx="600" cy="788" rx="190" ry="26" fill="#000" opacity=".12"/>
    <path d="M428 210 L772 210 L738 770 C736 786 464 786 462 770 Z" fill="#FFFFFF" opacity=".35"/>
    <clipPath id="gclip"><path d="M436 250 L764 250 L731 764 C729 776 471 776 469 764 Z"/></clipPath>
    <g clip-path="url(#gclip)">
      <rect x="400" y="250" width="400" height="540" fill="url(#liq)"/>
      <path d="M400 250 L800 250 L800 300 C720 318 660 290 600 306 C540 322 480 296 400 312 Z" fill="#F6EEDD"/>
      <circle cx="520" cy="286" r="7" fill="#fff" opacity=".7"/><circle cx="640" cy="279" r="5" fill="#fff" opacity=".7"/><circle cx="700" cy="292" r="6" fill="#fff" opacity=".6"/>
      <rect x="470" y="300" width="26" height="460" rx="13" fill="#fff" opacity=".16"/>
    </g>
    <path d="M428 210 L772 210 L738 770 C736 786 464 786 462 770 Z" fill="none" stroke="#FFFFFF" stroke-width="7" opacity=".85"/>
    <ellipse cx="600" cy="210" rx="172" ry="16" fill="none" stroke="#FFFFFF" stroke-width="6" opacity=".9"/>
    <rect x="690" y="70" width="26" height="330" rx="13" fill="#C9F45C" transform="rotate(14 703 235)"/>
    <rect x="690" y="70" width="26" height="330" rx="13" fill="url(#straw)" transform="rotate(14 703 235)"/>
    <g transform="translate(540 206) rotate(0) scale(0.7)"><path d="M-60 0 A60 60 0 0 1 60 0 Z" fill="#F6EFD6" stroke="#C8352F" stroke-width="9" stroke-linejoin="round"/><path d="M-14 -8 C-12 -22 -2 -24 0 -12 C2 -24 12 -22 14 -8" fill="none" stroke="#E7D9AE" stroke-width="3"/><ellipse cx="-6" cy="-12" rx="3" ry="5" fill="#5A3A22"/><ellipse cx="6" cy="-12" rx="3" ry="5" fill="#5A3A22"/></g>
  </g>
  <defs>
    <linearGradient id="liq" x1="0" y1="0" x2="0" y2="1"><stop offset="0" stop-color="#E9D8B5"/><stop offset="1" stop-color="#C9A778"/></linearGradient>
  </defs><g transform="translate(250 730) scale(1)"><path d="M0 -40 C-30 -60 -70 -40 -68 0 C-66 40 -34 64 -12 56 C-4 53 4 53 12 56 C34 64 66 40 68 0 C70 -40 30 -60 0 -40 Z" fill="#D8403A"/><path d="M-40 -20 C-50 0 -44 20 -32 32" stroke="#F07A6E" stroke-width="10" fill="none" stroke-linecap="round" opacity=".6"/><path d="M0 -40 C2 -52 6 -60 12 -66" stroke="#5A3A22" stroke-width="6" stroke-linecap="round" fill="none"/><path d="M8 -54 C24 -72 44 -66 48 -60 C36 -50 20 -50 8 -54 Z" fill="#5FA046"/></g><g transform="translate(920 770) rotate(-14) scale(1)"><path d="M-60 0 A60 60 0 0 1 60 0 Z" fill="#F6EFD6" stroke="#C8352F" stroke-width="9" stroke-linejoin="round"/><path d="M-14 -8 C-12 -22 -2 -24 0 -12 C2 -24 12 -22 14 -8" fill="none" stroke="#E7D9AE" stroke-width="3"/><ellipse cx="-6" cy="-12" rx="3" ry="5" fill="#5A3A22"/><ellipse cx="6" cy="-12" rx="3" ry="5" fill="#5A3A22"/></g><g transform="translate(980 700) rotate(20)"><rect x="-90" y="-11" width="180" height="22" rx="10" fill="#9A5B32"/><path d="M-86 -3 L86 -3 M-86 5 L86 5" stroke="#7A4322" stroke-width="2.5"/><ellipse cx="90" cy="0" rx="7" ry="11" fill="#B77646" stroke="#7A4322" stroke-width="2"/></g><g transform="translate(930 660) rotate(4)"><rect x="-90" y="-11" width="180" height="22" rx="10" fill="#9A5B32"/><path d="M-86 -3 L86 -3 M-86 5 L86 5" stroke="#7A4322" stroke-width="2.5"/><ellipse cx="90" cy="0" rx="7" ry="11" fill="#B77646" stroke="#7A4322" stroke-width="2"/></g><g transform="translate(357 806) rotate(25)"><ellipse rx="14" ry="9" fill="#E9D3A6" stroke="#CFB27C" stroke-width="2"/><path d="M-8 0 L8 0" stroke="#D6BD8A" stroke-width="1.5"/></g><g transform="translate(389 796) rotate(91)"><ellipse rx="14" ry="9" fill="#E9D3A6" stroke="#CFB27C" stroke-width="2"/><path d="M-8 0 L8 0" stroke="#D6BD8A" stroke-width="1.5"/></g><g transform="translate(392 798) rotate(100)"><ellipse rx="14" ry="9" fill="#E9D3A6" stroke="#CFB27C" stroke-width="2"/><path d="M-8 0 L8 0" stroke="#D6BD8A" stroke-width="1.5"/></g><g transform="translate(369 797) rotate(68)"><ellipse rx="14" ry="9" fill="#E9D3A6" stroke="#CFB27C" stroke-width="2"/><path d="M-8 0 L8 0" stroke="#D6BD8A" stroke-width="1.5"/></g><g transform="translate(376 809) rotate(131)"><ellipse rx="14" ry="9" fill="#E9D3A6" stroke="#CFB27C" stroke-width="2"/><path d="M-8 0 L8 0" stroke="#D6BD8A" stroke-width="1.5"/></g><g transform="translate(1010 590)"><ellipse cx="0" cy="44" rx="86" ry="14" fill="#000" opacity=".08"/><path d="M-62 -6 L62 -6 L52 40 C48 50 -48 50 -52 40 Z" fill="#E9ECEF" stroke="#C7CDD3" stroke-width="3"/><rect x="56" y="-2" width="92" height="16" rx="8" fill="#E9ECEF" stroke="#C7CDD3" stroke-width="3" transform="rotate(-8 56 -2)"/><path d="M-60 -6 C-50 -34 -18 -46 0 -46 C24 -46 52 -32 60 -6 Z" fill="#F8F4EA"/><path d="M-36 -22 C-20 -34 8 -36 26 -28" stroke="#fff" stroke-width="6" fill="none" stroke-linecap="round" opacity=".8"/></g></svg>