<svg xmlns="http://www.w3.org/2000/svg" viewBox="0 0 1200 900" width="1200" height="900" role="img" aria-label="Овсяный протеиновый коктейль"><title>Овсяный протеиновый коктейль</title><defs>
    <radialGradient id="bg" cx="50%" cy="38%" r="75%"><stop offset="0" stop-color="#F7F1E7"/><stop offset="1" stop-color="#E4D6C3"/></radialGradient>
    <linearGradient id="table" x1="0" y1="0" x2="0" y2="1"><stop offset="0" stop-color="#E9DCC9"/><stop offset="1" stop-color="#D9C7AF"/></linearGradient>
    <radialGradient id="bbshine" cx="35%" cy="30%" r="60%"><stop offset="0" stop-color="#8C97C9" stop-opacity=".7"/><stop offset=".5" stop-color="#35406E" stop-opacity="0"/></radialGradient>
    <pattern id="straw" width="26" height="40" patternUnits="userSpaceOnUse"><rect width="26" height="14" fill="#0D0F11" opacity=".85"/></pattern>
  </defs>
  <rect width="1200" height="900" fill="url(#bg)"/>
  <rect y="690" width="1200" height="210" fill="url(#table)"/>
  <rect y="688" width="1200" height="4" fill="#fff" opacity=".35"/>
  <g>
    <ellipse cx="600" cy="788" rx="190" ry="26" fill="#000" opacity=".12"/>
    <path d="M428 210 L772 210 L738 770 C736 786 464 786 462 770 Z" fill="#FFFFFF" opacity=".35"/>
    <clipPath id="gclip"><path d="M436 250 L764 250 L731 764 C729 776 471 776 469 764 Z"/></clipPath>
    <g clip-path="url(#gclip)">
      <rect x="400" y="250" width="400" height="540" fill="url(#liq)"/>
      <path d="M400 250 L800 250 L800 300 C720 318 660 290 600 306 C540 322 480 296 400 312 Z" fill="#F6EEDD"/>
      <circle cx="520" cy="286" r="7" fill="#fff" opacity=".7"/><circle cx="640" cy="279" r="5" fill="#fff" opacity=".7"/><circle cx="700" cy="292" r="6" fill="#fff" opacity=".6"/>
      <rect x="470" y="300" width="26" height="460" rx="13" fill="#fff" opacity=".16"/>
    </g>
    <path d="M428 210 L772 210 L738 770 C736 786 464 786 462 770 Z" fill="none" stroke="#FFFFFF" stroke-width="7" opacity=".85"/>
    <ellipse cx="600" cy="210" rx="172" ry="16" fill="none" stroke="#FFFFFF" stroke-width="6" opacity=".9"/>
    <rect x="690" y="70" width="26" height="330" rx="13" fill="#C9F45C" transform="rotate(14 703 235)"/>
    <rect x="690" y="70" width="26" height="330" rx="13" fill="url(#straw)" transform="rotate(14 703 235)"/>
    <g transform="translate(546 198) rotate(117)"><ellipse rx="14" ry="9" fill="#E9D3A6" stroke="#CFB27C" stroke-width="2"/><path d="M-8 0 L8 0" stroke="#D6BD8A" stroke-width="1.5"/></g><g transform="translate(526 209) rotate(66)"><ellipse rx="14" ry="9" fill="#E9D3A6" stroke="#CFB27C" stroke-width="2"/><path d="M-8 0 L8 0" stroke="#D6BD8A" stroke-width="1.5"/></g><g transform="translate(525 208) rotate(7)"><ellipse rx="14" ry="9" fill="#E9D3A6" stroke="#CFB27C" stroke-width="2"/><path d="M-8 0 L8 0" stroke="#D6BD8A" stroke-width="1.5"/></g><g transform="translate(555 196) rotate(16)"><ellipse rx="14" ry="9" fill="#E9D3A6" stroke="#CFB27C" stroke-width="2"/><path d="M-8 0 L8 0" stroke="#D6BD8A" stroke-width="1.5"/></g><g transform="translate(554 217) rotate(22)"><ellipse rx="14" ry="9" fill="#E9D3A6" stroke="#CFB27C" stroke-width="2"/><path d="M-8 0 L8 0" stroke="#D6BD8A" stroke-width="1.5"/></g>
  </g>
  <defs>
    <linearGradient id="liq" x1="0" y1="0" x2="0" y2="1"><stop offset="0" stop-color="#EADBBC"/><stop offset="1" stop-color="#CDB78C"/></linearGradient>
  </defs><g transform="translate(370 794) rotate(10)"><ellipse rx="14" ry="9" fill="#E9D3A6" stroke="#CFB27C" stroke-width="2"/><path d="M-8 0 L8 0" stroke="#D6BD8A" stroke-width="1.5"/></g><g transform="translate(179 786) rotate(132)"><ellipse rx="14" ry="9" fill="#E9D3A6" stroke="#CFB27C" stroke-width="2"/><path d="M-8 0 L8 0" stroke="#D6BD8A" stroke-width="1.5"/></g><g transform="translate(307 745) rotate(109)"><ellipse rx="14" ry="9" fill="#E9D3A6" stroke="#CFB27C" stroke-width="2"/><path d="M-8 0 L8 0" stroke="#D6BD8A" stroke-width="1.5"/></g><g transform="translate(293 766) rotate(29)"><ellipse rx="14" ry="9" fill="#E9D3A6" stroke="#CFB27C" stroke-width="2"/><path d="M-8 0 L8 0" stroke="#D6BD8A" stroke-width="1.5"/></g><g transform="translate(255 752) rotate(130)"><ellipse rx="14" ry="9" fill="#E9D3A6" stroke="#CFB27C" stroke-width="2"/><path d="M-8 0 L8 0" stroke="#D6BD8A" stroke-width="1.5"/></g><g transform="translate(379 795) rotate(98)"><ellipse rx="14" ry="9" fill="#E9D3A6" stroke="#CFB27C" stroke-width="2"/><path d="M-8 0 L8 0" stroke="#D6BD8A" stroke-width="1.5"/></g><g transform="translate(258 742) rotate(6)"><ellipse rx="14" ry="9" fill="#E9D3A6" stroke="#CFB27C" stroke-width="2"/><path d="M-8 0 L8 0" stroke="#D6BD8A" stroke-width="1.5"/></g><g transform="translate(166 757) rotate(57)"><ellipse rx="14" ry="9" fill="#E9D3A6" stroke="#CFB27C" stroke-width="2"/><path d="M-8 0 L8 0" stroke="#D6BD8A" stroke-width="1.5"/></g><g transform="translate(244 790) rotate(95)"><ellipse rx="14" ry="9" fill="#E9D3A6" stroke="#CFB27C" stroke-width="2"/><path d="M-8 0 L8 0" stroke="#D6BD8A" stroke-width="1.5"/></g><g transform="translate(283 740) rotate(4)"><ellipse rx="14" ry="9" fill="#E9D3A6" stroke="#CFB27C" stroke-width="2"/><path d="M-8 0 L8 0" stroke="#D6BD8A" stroke-width="1.5"/></g><g transform="translate(232 732) rotate(92)"><ellipse rx="14" ry="9" fill="#E9D3A6" stroke="#CFB27C" stroke-width="2"/><path d="M-8 0 L8 0" stroke="#D6BD8A" stroke-width="1.5"/></g><g transform="translate(380 773) rotate(33)"><ellipse rx="14" ry="9" fill="#E9D3A6" stroke="#CFB27C" stroke-width="2"/><path d="M-8 0 L8 0" stroke="#D6BD8A" stroke-width="1.5"/></g><g transform="translate(357 783) rotate(132)"><ellipse rx="14" ry="9" fill="#E9D3A6" stroke="#CFB27C" stroke-width="2"/><path d="M-8 0 L8 0" stroke="#D6BD8A" stroke-width="1.5"/></g><g transform="translate(359 780) rotate(142)"><ellipse rx="14" ry="9" fill="#E9D3A6" stroke="#CFB27C" stroke-width="2"/><path d="M-8 0 L8 0" stroke="#D6BD8A" stroke-width="1.5"/></g><g transform="translate(960 740) rotate(10) scale(0.75)"><path d="M-120 10 C-80 70 60 80 125 -15 C130 -24 118 -30 112 -22 C55 40 -60 35 -108 -8 Z" fill="#F5D34A" stroke="#D9A91E" stroke-width="4"/><path d="M-100 8 C-50 45 50 45 110 -12" fill="none" stroke="#E7BC2E" stroke-width="5" stroke-linecap="round" opacity=".7"/><path d="M112 -22 l14 -10" stroke="#6B4E1E" stroke-width="9" stroke-linecap="round"/><circle cx="-118" cy="8" r="6" fill="#4A3614"/></g><g transform="translate(945 830) rotate(143)"><ellipse rx="14" ry="9" fill="#E9D3A6" stroke="#CFB27C" stroke-width="2"/><path d="M-8 0 L8 0" stroke="#D6BD8A" stroke-width="1.5"/></g><g transform="translate(983 830) rotate(166)"><ellipse rx="14" ry="9" fill="#E9D3A6" stroke="#CFB27C" stroke-width="2"/><path d="M-8 0 L8 0" stroke="#D6BD8A" stroke-width="1.5"/></g><g transform="translate(873 819) rotate(170)"><ellipse rx="14" ry="9" fill="#E9D3A6" stroke="#CFB27C" stroke-width="2"/><path d="M-8 0 L8 0" stroke="#D6BD8A" stroke-width="1.5"/></g><g transform="translate(948 837) rotate(20)"><ellipse rx="14" ry="9" fill="#E9D3A6" stroke="#CFB27C" stroke-width="2"/><path d="M-8 0 L8 0" stroke="#D6BD8A" stroke-width="1.5"/></g><g transform="translate(926 809) rotate(98)"><ellipse rx="14" ry="9" fill="#E9D3A6" stroke="#CFB27C" stroke-width="2"/><path d="M-8 0 L8 0" stroke="#D6BD8A" stroke-width="1.5"/></g><g transform="translate(939 800) rotate(39)"><ellipse rx="14" ry="9" fill="#E9D3A6" stroke="#CFB27C" stroke-width="2"/><path d="M-8 0 L8 0" stroke="#D6BD8A" stroke-width="1.5"/></g><g transform="translate(904 837) rotate(138)"><ellipse rx="14" ry="9" fill="#E9D3A6" stroke="#CFB27C" stroke-width="2"/><path d="M-8 0 L8 0" stroke="#D6BD8A" stroke-width="1.5"/></g><g transform="translate(889 832) rotate(25)"><ellipse rx="14" ry="9" fill="#E9D3A6" stroke="#CFB27C" stroke-width="2"/><path d="M-8 0 L8 0" stroke="#D6BD8A" stroke-width="1.5"/></g><g transform="translate(210 600)"><ellipse cx="0" cy="44" rx="86" ry="14" fill="#000" opacity=".08"/><path d="M-62 -6 L62 -6 L52 40 C48 50 -48 50 -52 40 Z" fill="#E9ECEF" stroke="#C7CDD3" stroke-width="3"/><rect x="56" y="-2" width="92" height="16" rx="8" fill="#E9ECEF" stroke="#C7CDD3" stroke-width="3" transform="rotate(-8 56 -2)"/><path d="M-60 -6 C-50 -34 -18 -46 0 -46 C24 -46 52 -32 60 -6 Z" fill="#F8F4EA"/><path d="M-36 -22 C-20 -34 8 -36 26 -28" stroke="#fff" stroke-width="6" fill="none" stroke-linecap="round" opacity=".8"/></g></svg>